# xmcd
#
# Track frame offsets: 
#        150
#        21169
#        35811
#        53596
#        82300
#        108720
#        130767
#        163200
#        181639
#        202852
#        229980
#        258378
#        289069
#        309156
#
# Disc length: 4404 seconds
#
# Revision: 1
# Processed by: cddbd v1.5.2PL0 Copyright (c) Steve Scherf et al.
# Submitted via: ExactAudioCopy v0.99pb4
#
DISCID=c011320e
DTITLE=Glen Andrews and The Lazy Six - Dumaine Street Blues
DYEAR=1900
DGENRE=Jazz
TTITLE0=Over In The Gloryland
TTITLE1=Jeepers Creepers
TTITLE2=Dumaine St. Blues
TTITLE3=Can't Give You Anything But Love
TTITLE4=After You've Gone
TTITLE5=That's A Plenty
TTITLE6=Am I Blue
TTITLE7=Alexander's Ragtime Band
TTITLE8=Do You Know What It Means To Miss New Orleans
TTITLE9=Avalon
TTITLE10=Make Me A Pallet On The Floor
TTITLE11=Milenburg Joys
TTITLE12=What A Friend We Have In Jesus
TTITLE13=Reefer Song
EXTD=
EXTT0=
EXTT1=
EXTT2=
EXTT3=
EXTT4=
EXTT5=
EXTT6=
EXTT7=
EXTT8=
EXTT9=
EXTT10=
EXTT11=
EXTT12=
EXTT13=
PLAYORDER=
